<svg id="Capa_1" enable-background="new 0 0 501 501" height="512" viewBox="0 0 501 501" width="512" xmlns="http://www.w3.org/2000/svg"><path d="m495.5 256c0 116.756-81.671 214.436-191 239.029 0 0-4.477-10.446-10-10.446s-10 14.076-10 14.076c-10.574 1.468-21.365 2.261-32.326 2.335s-4.477-16.411-10-16.411c-5.523 0-10 15.742-10 15.742-13.852-1.024-27.383-3.2-40.498-6.432-3.619-.892-5.873-5.717-9.426-6.768-3.106-.918-7.52 1.956-10.573.919-96.64-32.817-166.177-124.31-166.177-232.044 0-135.31 109.69-245 245-245 36.4 0 70.946 7.938 102.001 22.177 10.168 4.662 19.012 11.117 28.374 17.073 7.919 5.038 16.479 9.401 23.746 15.288 55.44 44.917 90.879 113.551 90.879 190.462z" fill="#012d4e"/><path d="m191.675 176.012v90.475c0 5.523-4.477 10-10 10s-10-4.477-10-10v-80.475h-9.338c-5.523 0-10-4.477-10-10s4.477-10 10-10h19.338c5.523 0 10 4.477 10 10zm86.331 123.513h-19.338c-5.523 0-10 4.477-10 10s4.477 10 10 10h9.338v80.475c0 5.523 4.477 10 10 10s10-4.477 10-10v-90.475c0-5.523-4.477-10-10-10zm-187.673 0h-19.339c-5.523 0-10 4.477-10 10s4.477 10 10 10h9.338v80.475c0 5.523 4.477 10 10 10s10-4.477 10-10v-90.475c.001-5.523-4.477-10-9.999-10zm91.342 132.321h-19.338c-5.523 0-10 4.477-10 10s4.477 10 10 10h9.338v36.197c6.547 2.223 13.218 4.177 20 5.849v-52.046c0-5.523-4.477-10-10-10zm270.821-265.834h-19.338c-5.523 0-10 4.477-10 10s4.477 10 10 10h9.338v80.475c0 5.523 4.477 10 10 10s10-4.477 10-10v-90.475c0-5.523-4.477-10-10-10zm-82.327 0h-19.338c-5.523 0-10 4.477-10 10s4.477 10 10 10h9.338v80.475c0 5.523 4.477 10 10 10s10-4.477 10-10v-90.475c0-5.523-4.477-10-10-10z" fill="#0ab59e"/><path d="m268.337 278.333c-19.94 0-36.163-16.223-36.163-36.163v-41.841c0-19.94 16.223-36.164 36.163-36.164s36.163 16.223 36.163 36.164v41.841c0 19.94-16.223 36.163-36.163 36.163zm0-94.168c-8.913 0-16.163 7.251-16.163 16.164v41.841c0 8.912 7.251 16.163 16.163 16.163s16.163-7.251 16.163-16.163v-41.841c0-8.913-7.25-16.164-16.163-16.164zm-187.674 94.168c-19.94 0-36.163-16.223-36.163-36.163v-41.841c0-19.94 16.223-36.164 36.163-36.164s36.163 16.223 36.163 36.164v41.841c0 19.94-16.222 36.163-36.163 36.163zm0-94.168c-8.913 0-16.163 7.251-16.163 16.164v41.841c0 8.912 7.25 16.163 16.163 16.163s16.163-7.251 16.163-16.163v-41.841c0-8.913-7.25-16.164-16.163-16.164zm187.674 245.835c-19.94 0-36.163 16.223-36.163 36.163v34.162c6.05.447 12.162.675 18.326.675.558 0 1.116-.002 1.674-.006v-34.831c0-8.912 7.251-16.163 16.163-16.163s16.163 7.251 16.163 16.163v32.496c6.759-.938 13.429-2.152 20-3.63v-28.866c0-19.94-16.223-36.163-36.163-36.163zm-96.331-20c-19.94 0-36.163-16.223-36.163-36.163v-41.841c0-19.94 16.223-36.164 36.163-36.164s36.163 16.223 36.163 36.164v41.841c0 19.94-16.223 36.163-36.163 36.163zm0-94.168c-8.913 0-16.163 7.251-16.163 16.164v41.841c0 8.912 7.25 16.163 16.163 16.163s16.163-7.251 16.163-16.163v-41.841c0-8.913-7.251-16.164-16.163-16.164zm96.331-172.139c-19.94 0-36.163-16.223-36.163-36.164v-41.841c0-19.94 16.223-36.163 36.163-36.163s36.163 16.223 36.163 36.163v41.841c0 19.941-16.223 36.164-36.163 36.164zm0-94.168c-8.913 0-16.163 7.251-16.163 16.163v41.841c0 8.913 7.251 16.164 16.163 16.164s16.163-7.251 16.163-16.164v-41.841c0-8.912-7.25-16.163-16.163-16.163zm63.837 16.163v41.841c0 19.94 16.223 36.164 36.163 36.164s36.163-16.223 36.163-36.164v-41.841c0-.083-.001-.166-.002-.249-15.824-12.804-33.275-23.677-51.994-32.26-12.027 5.881-20.33 18.243-20.33 32.509zm52.326 0v41.841c0 8.913-7.25 16.164-16.163 16.164s-16.163-7.251-16.163-16.164v-41.841c0-8.912 7.25-16.163 16.163-16.163s16.163 7.251 16.163 16.163z" fill="#5affb7"/><path d="m192.006 120c0 11.046-8.954 20-20 20s-20-8.954-20-20 8.954-20 20-20 20 8.954 20 20zm-20-40c8.284 0 15-6.716 15-15s-6.716-15-15-15-15 6.716-15 15 6.716 15 15 15zm0-50c8.284 0 15-6.716 15-15s-6.716-15-15-15-15 6.716-15 15 6.716 15 15 15zm196.331 310c-11.046 0-20-8.954-20-20s8.954-20 20-20 20 8.954 20 20-8.954 20-20 20zm-15 35c0 8.284 6.716 15 15 15s15-6.716 15-15-6.716-15-15-15-15 6.716-15 15zm0 50c0 8.284 6.716 15 15 15s15-6.716 15-15-6.716-15-15-15-15 6.716-15 15z" fill="#006e66"/><path d="m192.006 120c0 2.598-.495 5.079-1.396 7.356-2.277.901-4.759 1.396-7.356 1.396-11.046 0-20-8.954-20-20 0-2.598.495-5.079 1.396-7.356 2.277-.901 4.759-1.396 7.356-1.396 11.046 0 20 8.954 20 20zm-20-70c-1.16 0-2.288.132-3.372.381-.249 1.084-.381 2.213-.381 3.372 0 8.284 6.716 15 15 15 1.16 0 2.288-.132 3.372-.381.249-1.084.381-2.213.381-3.372 0-8.284-6.716-15-15-15zm11.247-31.247c1.16 0 2.288-.132 3.372-.381.249-1.084.381-2.213.381-3.372 0-8.284-6.716-15-15-15-1.16 0-2.288.132-3.372.381-.249 1.084-.381 2.213-.381 3.372 0 8.284 6.716 15 15 15zm205.084 301.247c0-2.598-.495-5.079-1.396-7.356-2.277-.901-4.759-1.396-7.356-1.396-11.046 0-20 8.954-20 20 0 2.598.495 5.079 1.396 7.356 2.277.901 4.759 1.396 7.356 1.396 11.046 0 20-8.954 20-20zm-5 55c0-1.16-.132-2.288-.381-3.372-1.084-.249-2.213-.381-3.372-.381-8.284 0-15 6.716-15 15 0 1.16.132 2.288.381 3.372 1.084.249 2.213.381 3.372.381 8.284 0 15-6.716 15-15zm-18.753 61.247c0 1.16.132 2.288.381 3.372 1.084.249 2.213.381 3.372.381 8.284 0 15-6.716 15-15 0-1.16-.132-2.288-.381-3.372-1.084-.249-2.213-.381-3.372-.381-8.284 0-15 6.716-15 15z" fill="#06995f"/></svg>